<svg width="23" height="26" viewBox="0 0 23 26" fill="none" xmlns="http://www.w3.org/2000/svg">
<path id="Vector" d="M20.3057 1.77518e-06L2.69441 2.35553e-07C1.20921 1.05712e-07 -1.04556e-07 1.19598 -2.3412e-07 2.67802L-1.77066e-06 20.254C-1.90023e-06 21.7361 1.20912 22.932 2.69432 22.932L17.5983 22.932L16.9017 20.527L18.584 22.074L20.1742 23.53L23 26L23 2.67802C23 1.19598 21.7909 1.90502e-06 20.3057 1.77518e-06ZM15.2326 16.9781C15.2326 16.9781 14.7594 16.419 14.3651 15.925C16.0869 15.444 16.744 14.378 16.744 14.378C16.2051 14.729 15.6926 14.9761 15.2326 15.1449C14.5754 15.418 13.9446 15.5999 13.3269 15.704C12.0651 15.938 10.9086 15.873 9.92288 15.691C9.17368 15.548 8.52968 15.34 7.99088 15.1321C7.68856 15.015 7.36 14.872 7.03135 14.69C6.992 14.664 6.95256 14.651 6.91312 14.625C6.88688 14.612 6.87368 14.599 6.86056 14.5861C6.624 14.456 6.49256 14.365 6.49256 14.365C6.49256 14.365 7.12344 15.4051 8.79256 15.899C8.39832 16.3931 7.912 16.978 7.912 16.978C5.00735 16.887 3.90344 15.002 3.90344 15.002C3.90344 10.816 5.796 7.423 5.796 7.423C7.68856 6.01898 9.48912 6.058 9.48912 6.058L9.62056 6.21405C7.25488 6.88988 6.164 7.91701 6.164 7.91701C6.164 7.91701 6.45312 7.76105 6.93935 7.54004C8.34568 6.92898 9.46288 6.76005 9.92288 6.72103C10.0017 6.70797 10.0674 6.695 10.1463 6.695C11.0271 6.58151 11.9184 6.5728 12.8012 6.66905C14.0497 6.81204 15.3903 7.17604 16.7571 7.91701C16.7571 7.91701 15.7189 6.94205 13.4846 6.26604L13.6686 6.05809C13.6686 6.05809 15.4691 6.01898 17.3617 7.42309C17.3617 7.42309 19.2543 10.816 19.2543 15.002C19.2543 15.002 18.1371 16.887 15.2326 16.978L15.2326 16.9781ZM9.12112 10.907C8.372 10.907 7.78065 11.557 7.78065 12.35C7.78065 13.143 8.38512 13.793 9.12112 13.793C9.87032 13.793 10.4617 13.143 10.4617 12.35C10.4749 11.557 9.87032 10.907 9.12121 10.907M13.9183 10.907C13.1691 10.907 12.5777 11.557 12.5777 12.35C12.5777 13.143 13.1823 13.793 13.9183 13.793C14.6674 13.793 15.2588 13.143 15.2588 12.35C15.2588 11.557 14.6674 10.907 13.9183 10.907Z" fill="#535560"/>
</svg>
