<svg width="25" height="20" viewBox="0 0 25 20" fill="none" xmlns="http://www.w3.org/2000/svg">
<path id="Vector" d="M7.86225 20C17.2966 20 22.456 12.3062 22.456 5.6344C22.456 5.4159 22.4515 5.1984 22.4415 4.9818C23.4454 4.26676 24.3117 3.38142 25 2.3673C24.0809 2.7695 23.092 3.0402 22.0545 3.16225C23.1135 2.5372 23.9264 1.54835 24.31 0.36965C23.3031 0.957597 22.2016 1.37207 21.053 1.5952C20.117 0.6138 18.7845 0 17.309 0C14.4765 0 12.1795 2.2611 12.1795 5.04825C12.1795 5.4445 12.2246 5.8298 12.3126 6.1995C8.04964 5.98835 4.26956 3.97925 1.73974 0.9243C1.28409 1.69482 1.04443 2.57053 1.04522 3.462C1.04522 5.2137 1.95071 6.76005 3.32774 7.66475C2.51321 7.64026 1.71656 7.42369 1.00478 7.03325C1.00401 7.05445 1.00401 7.0751 1.00401 7.09775C1.00401 9.5429 2.772 11.5844 5.11895 12.047C4.67816 12.1652 4.22332 12.225 3.76646 12.2247C3.43653 12.2247 3.11499 12.1927 2.80249 12.1337C3.45549 14.1398 5.34898 15.5996 7.59395 15.6404C5.83841 16.9949 3.62698 17.8016 1.22348 17.8016C0.814608 17.802 0.406076 17.7786 0 17.7317C2.27002 19.1639 4.96545 19.9997 7.8625 19.9997" fill="#535560"/>
</svg>
