<svg width="26" height="21" viewBox="0 0 26 21" fill="none" xmlns="http://www.w3.org/2000/svg">
<g id="Group">
<path id="Vector" d="M3.00404 4.10285C3.01956 3.94951 2.99875 3.79466 2.94328 3.65086C2.88781 3.50706 2.79924 3.37836 2.68476 3.27516L0.319085 0.425446V0H7.66383L13.3406 12.4503L18.3319 0H25.3334V0.42564L23.311 2.36471C23.2254 2.42992 23.1593 2.51723 23.1197 2.61725C23.0801 2.71727 23.0685 2.82619 23.0863 2.93229V17.1797C23.0685 17.2858 23.0801 17.3947 23.1197 17.4948C23.1593 17.5948 23.2254 17.6821 23.311 17.7473L25.286 19.6864V20.112H15.3515V19.6864L17.3975 17.6999C17.5986 17.4988 17.5986 17.4398 17.5986 17.1325V5.61628L11.9098 20.0646H11.1409L4.51785 5.61628V15.2998C4.49062 15.5007 4.50948 15.7052 4.573 15.8978C4.63653 16.0904 4.74306 16.2659 4.88451 16.4112L7.54548 19.639V20.0646H0V19.6392L2.66097 16.4112C2.80129 16.2658 2.90545 16.0895 2.96504 15.8964C3.02464 15.7034 3.03799 15.499 3.00404 15.2998V4.10285Z" fill="#535560"/>
</g>
</svg>
